<?xml version="1.0" standalone="no"?>
<!DOCTYPE svg PUBLIC "-//W3C//DTD SVG 20010904//EN"
 "http://www.w3.org/TR/2001/REC-SVG-20010904/DTD/svg10.dtd">
<svg version="1.0" xmlns="http://www.w3.org/2000/svg"
 width="1118.000000pt" height="1103.000000pt" viewBox="0 0 1118.000000 1103.000000"
 preserveAspectRatio="xMidYMid meet">

<g transform="translate(0.000000,1103.000000) scale(0.100000,-0.100000)"
fill="#000000" stroke="none">
<path d="M6920 10680 c-19 -4 -69 -30 -110 -59 -41 -29 -122 -85 -180 -125
-349 -240 -431 -299 -423 -306 8 -7 98 -43 738 -295 149 -59 298 -118 333
-132 34 -13 69 -23 77 -21 8 2 84 51 169 111 l156 107 -60 88 c-32 48 -86 125
-119 172 -33 47 -93 132 -133 190 -86 124 -147 193 -203 225 -62 37 -176 58
-245 45z"/>
<path d="M5255 9547 c-16 -13 -59 -44 -95 -68 -456 -315 -650 -451 -650 -454
0 -3 365 -149 700 -280 80 -31 213 -83 295 -116 83 -32 157 -59 165 -59 8 0
71 40 140 88 69 49 244 171 388 272 177 123 260 186 250 191 -30 16 -1144 449
-1156 449 -4 0 -20 -11 -37 -23z"/>
<path d="M8365 8561 c-33 -15 -126 -56 -206 -90 l-147 -63 -6 -47 c-8 -59 -55
-459 -101 -861 -19 -173 -39 -328 -43 -343 -7 -25 -22 -35 -107 -71 -123 -53
-735 -320 -790 -345 l-40 -19 -3 27 c-1 14 24 269 57 566 33 297 63 570 67
607 l6 68 -28 -14 c-30 -15 -581 -255 -744 -324 -71 -31 -96 -47 -102 -64 -7
-26 -27 -195 -93 -783 -47 -412 -58 -485 -75 -485 -5 0 -135 -54 -287 -121
-153 -66 -291 -127 -308 -134 -16 -7 -57 -25 -90 -40 -33 -15 -89 -39 -125
-53 -36 -14 -75 -32 -87 -40 -23 -14 -23 -14 -23 34 0 27 11 148 25 269 14
121 41 364 60 540 19 176 37 339 40 363 6 50 -1 52 -71 18 -27 -13 -116 -53
-199 -89 -82 -36 -240 -104 -350 -152 -110 -48 -210 -91 -222 -96 -12 -4 -25
-19 -28 -31 -6 -29 -35 -270 -80 -668 -52 -457 -65 -561 -75 -579 -4 -9 -55
-36 -112 -60 -56 -25 -141 -62 -186 -83 -46 -21 -86 -38 -88 -38 -2 0 -26 -10
-52 -21 -26 -12 -60 -27 -77 -34 -16 -7 -52 -23 -80 -35 -40 -18 -281 -125
-331 -146 -15 -7 -12 29 52 601 30 270 57 529 61 577 l6 87 -39 -18 c-22 -10
-169 -76 -329 -146 -502 -220 -505 -222 -505 -237 0 -7 -9 -80 -20 -163 -11
-82 -20 -154 -20 -158 0 -7 -66 26 -175 90 -22 13 -92 50 -155 82 -63 33 -135
71 -160 85 -159 89 -561 291 -621 311 -225 77 -449 36 -567 -103 -29 -34 -72
-116 -72 -138 0 -20 -19 -17 -112 19 -62 24 -68 25 -68 8 0 -59 38 -129 176
-327 151 -215 173 -257 299 -548 156 -365 264 -551 369 -644 40 -35 114 -75
158 -86 16 -3 28 -12 28 -18 0 -7 45 -114 99 -238 54 -124 138 -315 186 -425
48 -110 95 -218 105 -240 55 -125 445 -1021 492 -1130 17 -38 38 -88 48 -110
10 -22 104 -238 210 -480 106 -242 198 -453 205 -470 8 -16 40 -91 73 -165
225 -517 234 -536 274 -578 120 -129 283 -174 424 -118 47 19 368 158 589 256
44 19 212 93 390 170 63 27 168 73 233 101 64 28 187 82 272 119 85 37 245
107 355 155 110 48 218 95 240 105 22 10 74 32 115 50 41 18 93 40 115 50 22
10 74 32 115 50 41 18 93 40 115 50 22 10 74 32 115 50 41 18 94 41 118 51 23
11 61 27 85 38 23 10 76 33 117 51 41 18 93 40 115 50 49 21 396 173 555 242
63 28 185 81 270 118 172 75 292 127 580 253 107 47 254 111 325 142 72 32
182 80 245 107 63 28 185 81 270 118 220 96 356 156 585 255 338 147 517 226
582 257 104 49 179 153 203 279 16 85 5 137 -70 304 -10 22 -32 74 -50 115
-18 41 -40 93 -50 115 -10 22 -40 92 -68 155 -27 63 -129 295 -225 515 -96
220 -208 477 -247 570 -40 94 -157 361 -260 595 -103 234 -211 479 -240 545
-29 66 -72 165 -96 220 -24 55 -119 275 -212 488 l-170 389 24 41 c34 62 48
159 34 237 -6 34 -15 70 -20 79 -8 15 -144 329 -191 441 -38 88 -103 213 -114
216 -6 2 -37 -9 -70 -25z m-213 -2142 c23 -12 55 -11 77 3 25 15 169 -10 193
-34 10 -10 26 -18 36 -18 24 0 62 -28 62 -46 0 -8 4 -13 9 -9 10 6 56 -53 48
-61 -3 -3 7 -30 23 -60 22 -43 25 -56 14 -65 -7 -6 -14 -20 -16 -32 -3 -23
-43 -36 -116 -38 -20 -1 -36 -8 -42 -19 -11 -21 -75 -31 -97 -15 -14 11 -14
15 2 41 10 16 29 39 41 51 24 24 40 82 30 108 -3 8 -16 20 -28 25 -13 5 -48
34 -78 64 -30 31 -62 56 -72 56 -9 0 -20 5 -23 10 -4 7 -13 7 -25 0 -11 -6
-31 -8 -45 -4 -19 5 -32 1 -48 -14 -12 -12 -41 -23 -66 -26 -24 -3 -48 -11
-52 -17 -4 -6 -17 -13 -30 -14 -13 -1 -29 -3 -35 -4 -6 0 -18 -17 -27 -36 -17
-35 -73 -79 -89 -69 -18 11 -98 -107 -105 -155 -3 -20 -10 -41 -15 -48 -9 -11
-7 -17 24 -75 6 -13 18 -35 25 -49 19 -38 89 -46 118 -13 17 19 55 35 91 38 6
1 18 8 27 17 10 10 26 15 41 12 19 -4 44 6 90 36 57 37 68 41 98 33 27 -7 32
-12 30 -33 -2 -13 -10 -27 -17 -32 -8 -4 -21 -14 -29 -23 -9 -8 -39 -22 -68
-30 -66 -18 -97 -33 -124 -56 -12 -10 -48 -26 -80 -35 -59 -16 -104 -46 -104
-69 0 -7 -6 -14 -12 -16 -9 -3 -7 -13 7 -33 11 -15 25 -36 30 -45 24 -40 83
-96 115 -109 65 -25 183 -44 202 -32 12 7 26 8 43 1 40 -15 48 -13 92 25 23
19 48 35 57 35 11 0 16 9 16 29 0 25 6 32 40 47 22 10 42 26 45 35 3 10 21 26
39 37 25 15 36 30 45 65 14 56 14 87 1 87 -5 0 -10 11 -10 24 0 13 -5 26 -12
28 -13 5 57 49 87 55 73 14 85 12 114 -24 56 -67 46 -178 -25 -270 -13 -17
-24 -41 -24 -53 0 -28 -17 -60 -33 -60 -7 0 -24 -18 -39 -39 -20 -28 -36 -40
-62 -44 -20 -3 -41 -10 -48 -16 -52 -43 -76 -59 -95 -65 -11 -4 -26 -13 -32
-20 -7 -8 -20 -12 -31 -9 -19 5 -115 -22 -136 -38 -17 -14 -137 10 -160 32
-12 12 -28 17 -38 13 -9 -3 -22 -2 -29 4 -6 5 -26 13 -44 16 -17 4 -34 14 -37
23 -4 9 -13 13 -22 9 -11 -4 -33 12 -70 49 -30 31 -54 60 -54 64 0 5 -7 14
-15 21 -8 7 -32 47 -53 89 -21 42 -46 90 -55 106 -34 64 -51 111 -49 140 4 68
15 105 37 129 13 14 22 27 20 27 -3 1 -11 2 -17 3 -19 3 -10 28 18 54 14 13
24 34 24 50 0 41 35 92 69 98 16 3 43 19 60 35 39 35 64 49 88 49 11 0 34 11
53 25 19 14 40 25 46 25 7 0 25 11 39 24 43 40 116 51 167 25z m-1485 -71 c15
-13 37 -28 48 -34 30 -16 65 -73 65 -106 0 -15 -7 -55 -17 -88 -13 -49 -22
-64 -50 -80 -18 -10 -33 -24 -33 -30 0 -35 -197 18 -215 57 -5 12 -19 23 -30
25 -31 5 -31 87 0 153 24 51 38 60 165 113 35 15 35 15 67 -10z m-5532 -320
c28 -13 32 -30 10 -48 -8 -7 -15 -16 -15 -21 0 -4 -13 -30 -29 -58 -16 -27
-27 -52 -24 -55 4 -3 -3 -6 -15 -6 -27 0 -59 31 -68 65 -10 41 17 98 56 117
41 21 51 22 85 6z m7140 2 c3 -5 -1 -10 -9 -10 -9 0 -16 5 -16 10 0 6 4 10 9
10 6 0 13 -4 16 -10z m53 -32 c-5 -16 -70 -48 -81 -41 -5 3 2 16 14 29 24 25
74 34 67 12z m-1418 -103 c8 -5 8 -11 0 -20 -7 -9 -6 -21 5 -41 8 -16 22 -45
30 -64 8 -19 19 -42 24 -50 10 -15 97 -200 120 -254 10 -24 16 -28 41 -23 27
6 30 4 46 -45 13 -40 14 -55 5 -70 -16 -26 -14 -49 9 -83 11 -16 20 -42 20
-56 0 -20 6 -28 25 -33 14 -4 28 -13 31 -20 4 -11 16 -11 71 1 36 7 81 11 100
7 33 -6 33 -6 33 31 0 31 3 35 14 26 18 -15 89 16 134 59 28 27 37 30 59 23
15 -5 36 -21 47 -36 19 -26 19 -27 0 -63 -21 -40 -76 -86 -139 -115 -22 -11
-49 -26 -59 -34 -11 -8 -27 -15 -36 -15 -9 0 -25 -9 -35 -20 -10 -11 -28 -20
-40 -20 -12 0 -39 -11 -59 -25 -20 -14 -43 -25 -51 -25 -14 0 -23 -7 -89 -67
-18 -15 -44 -27 -65 -29 -20 -2 -40 -3 -46 -4 -5 -1 -20 2 -32 5 -17 6 -26 -1
-48 -39 -23 -39 -29 -44 -45 -34 -23 14 -91 -5 -116 -33 -11 -12 -25 -17 -39
-13 -13 3 -32 1 -42 -4 -25 -14 -39 -4 -63 41 -26 48 -25 61 5 114 21 35 31
43 55 43 16 0 32 5 35 10 4 6 11 8 16 5 5 -4 30 9 56 27 40 28 55 32 94 30 40
-3 49 0 68 24 25 31 26 47 7 63 -16 14 -28 68 -27 130 0 29 -6 52 -19 69 -11
13 -20 31 -20 38 0 8 -16 31 -35 52 -34 38 -54 96 -55 157 0 17 -11 47 -25 67
-14 20 -25 45 -25 55 -1 33 -45 98 -69 101 -29 5 -82 -17 -102 -41 -13 -17
-18 -18 -38 -6 -19 11 -25 11 -28 2 -3 -7 -9 -13 -15 -13 -6 0 -23 -11 -39
-24 -31 -26 -152 -52 -194 -42 -33 8 -60 66 -48 102 6 19 22 31 58 45 28 11
58 19 68 19 9 0 25 4 35 9 9 5 28 14 42 20 14 7 36 18 50 26 14 8 41 15 61 15
19 0 41 6 47 12 25 25 116 48 169 44 29 -3 57 -7 63 -11z m-725 -221 c10 -14
15 -14 33 -3 31 19 37 5 23 -49 -6 -27 -9 -56 -5 -65 8 -21 -21 -34 -40 -18
-10 9 -15 8 -19 -2 -3 -7 -23 -19 -46 -27 -42 -13 -81 -61 -81 -99 0 -9 -6
-25 -13 -36 -19 -25 -13 -172 8 -195 10 -11 11 -20 5 -26 -7 -7 -6 -21 1 -43
9 -24 9 -38 0 -54 -16 -31 -29 -123 -20 -139 5 -7 9 -23 9 -34 0 -12 9 -33 20
-47 17 -21 20 -36 16 -81 -4 -48 -2 -58 15 -67 11 -5 17 -14 14 -20 -4 -5 -11
-7 -16 -4 -5 3 -6 -1 -3 -9 3 -8 1 -31 -6 -50 -8 -26 -8 -39 1 -54 17 -27 -14
-128 -44 -144 -12 -6 -28 -20 -37 -31 -16 -19 -17 -19 -71 4 -30 13 -75 45
-102 71 -26 26 -52 48 -56 48 -5 0 -14 14 -20 30 -7 22 -16 30 -34 30 -32 0
-46 16 -99 119 -28 54 -66 96 -96 105 -12 4 -22 15 -22 25 0 10 -25 41 -55 69
-30 28 -55 55 -55 60 0 5 -16 16 -36 25 -20 10 -38 27 -41 37 -3 11 -9 20 -14
20 -4 0 -13 16 -20 35 -7 19 -19 35 -26 35 -7 0 -10 7 -6 16 5 14 3 14 -18 2
-13 -7 -28 -18 -34 -25 -17 -21 -126 -44 -173 -37 -37 6 -45 12 -62 45 -27 51
-25 64 10 89 17 12 28 25 25 30 -7 11 22 33 48 36 12 1 49 12 82 24 41 15 74
20 103 17 43 -5 127 18 158 44 19 16 144 25 144 10 0 -6 -9 -11 -19 -11 -14 0
-21 -10 -26 -32 -4 -18 -11 -37 -15 -43 -5 -5 -10 -21 -12 -35 l-4 -25 -14 28
c-17 34 -24 34 -61 -4 -23 -24 -29 -38 -27 -62 3 -30 6 -32 36 -29 26 3 32 0
32 -16 0 -11 8 -22 18 -24 10 -3 19 -11 19 -19 0 -28 65 -129 104 -161 74 -61
189 -181 189 -196 0 -13 57 -47 91 -56 22 -5 30 0 53 32 29 42 33 83 13 123
-8 14 -21 46 -30 71 -15 45 -14 47 4 60 27 18 38 75 29 150 -4 36 -3 75 3 91
7 21 6 32 -5 45 -19 23 -41 90 -33 102 3 5 -1 10 -9 10 -9 0 -16 7 -16 15 0 9
6 12 18 9 15 -5 15 -4 -1 6 -15 9 -22 9 -36 -4 -10 -9 -25 -16 -34 -16 -9 0
-19 -4 -22 -10 -10 -17 -62 -11 -104 11 -45 23 -56 42 -40 70 14 28 97 79 127
79 13 0 44 14 69 30 24 17 49 30 56 30 7 0 32 14 57 31 128 86 219 117 245 83z
m-3814 -304 c13 -10 19 -19 12 -20 -12 0 -86 -126 -86 -147 -1 -33 -58 2 -77
46 -37 89 79 182 151 121z m-784 -341 c11 -10 11 -14 -1 -28 -23 -27 -76 -127
-76 -144 0 -20 -25 -13 -57 16 -46 41 -21 142 41 168 25 10 73 4 93 -12z
m2975 -36 c14 -12 33 -16 74 -14 30 1 61 -2 67 -7 7 -6 25 -12 41 -14 20 -2
35 -12 46 -33 20 -36 56 -56 87 -49 16 4 23 2 23 -8 0 -15 134 -148 149 -148
13 0 41 -64 41 -96 0 -15 10 -38 22 -51 12 -13 32 -51 44 -85 22 -58 22 -64 8
-127 -9 -36 -24 -84 -35 -106 -11 -23 -19 -62 -20 -90 0 -44 -4 -54 -39 -90
-22 -22 -40 -47 -40 -56 0 -20 -64 -89 -83 -89 -9 0 -22 -6 -29 -13 -34 -34
-115 -79 -147 -83 -44 -5 -70 -12 -97 -26 -16 -7 -29 -6 -52 6 -35 18 -98 21
-107 6 -4 -7 -11 -7 -18 -2 -7 5 -32 12 -57 16 -24 4 -50 12 -57 18 -7 6 -33
8 -57 6 -42 -5 -45 -4 -82 43 -21 27 -46 51 -55 54 -9 3 -33 23 -53 45 -20 22
-40 40 -45 40 -11 0 -31 46 -31 72 0 12 -10 35 -23 52 -37 50 -48 87 -38 124
7 21 6 43 -1 63 -13 39 6 106 34 114 21 7 23 16 6 33 -13 13 -18 102 -6 102 5
0 8 6 8 14 0 7 6 19 14 25 8 7 12 20 9 30 -3 11 4 27 17 39 13 12 28 31 34 43
6 12 16 21 21 21 22 -1 46 32 40 55 -8 33 12 68 30 53 11 -9 16 -7 25 9 9 17
20 21 60 21 38 0 54 5 67 20 10 11 23 20 30 20 7 0 13 5 13 10 0 6 29 10 66
10 53 0 65 3 61 14 -11 28 9 33 35 9z m3668 -187 c0 -17 30 -23 123 -26 73 -1
138 -20 164 -45 8 -9 28 -19 44 -22 33 -6 77 -52 91 -96 6 -18 24 -49 40 -70
25 -31 48 -108 48 -159 0 -5 7 -8 16 -8 23 0 13 -33 -14 -45 -16 -7 -22 -18
-22 -42 0 -17 -4 -35 -10 -38 -25 -16 -8 -43 42 -66 29 -13 56 -23 60 -21 5 1
23 -8 41 -21 18 -13 56 -37 85 -53 40 -22 55 -37 63 -64 7 -19 15 -39 19 -45
4 -5 10 -23 13 -40 3 -16 11 -49 18 -73 10 -32 10 -47 2 -61 -6 -9 -9 -30 -6
-45 3 -14 -1 -46 -10 -69 -8 -23 -18 -59 -21 -81 -6 -43 -30 -76 -57 -76 -11
0 -23 -15 -34 -44 -20 -51 -90 -122 -122 -124 -36 -1 -147 -44 -161 -61 -10
-12 -15 -13 -21 -3 -6 9 -12 8 -26 -8 -10 -11 -30 -20 -45 -20 -30 0 -90 -27
-90 -40 0 -4 -18 -11 -39 -15 -41 -7 -74 -35 -86 -73 -3 -12 -10 -20 -15 -17
-5 3 -29 6 -54 7 -35 0 -52 -5 -76 -26 -17 -14 -36 -26 -41 -26 -5 0 -31 -11
-58 -24 -42 -20 -59 -23 -108 -17 -57 6 -58 7 -61 40 -5 54 15 87 69 115 27
15 57 26 67 26 10 0 31 14 47 30 16 17 35 28 42 26 7 -3 13 2 13 11 0 22 -67
163 -78 163 -10 0 -32 59 -32 87 0 45 -20 79 -55 92 -19 7 -35 19 -35 27 0 8
-6 17 -14 20 -10 4 -15 22 -15 61 0 46 -8 71 -50 156 -28 56 -53 116 -57 132
-13 61 -48 150 -66 168 -10 10 -16 22 -13 27 8 14 -19 72 -44 94 -21 19 -23
19 -51 2 -27 -16 -32 -16 -46 -2 -21 21 -76 20 -100 -2 -15 -13 -32 -16 -77
-14 -68 4 -75 14 -52 68 36 86 72 112 157 115 10 0 20 4 23 10 4 5 24 9 45 9
21 0 41 4 44 9 7 10 91 25 123 22 12 -1 48 12 80 30 32 18 75 41 96 52 20 10
37 22 37 26 0 7 44 27 80 35 14 3 35 15 48 26 12 11 42 29 66 39 38 17 43 22
39 45 -3 15 -1 26 6 26 6 0 11 -6 11 -14z m-4684 -321 c9 -14 24 -25 33 -25 9
0 32 -5 51 -10 52 -15 81 -63 107 -180 3 -14 23 -44 45 -66 35 -37 39 -44 28
-64 -10 -18 -8 -26 7 -43 11 -12 25 -42 32 -67 20 -67 52 -131 133 -261 27
-44 31 -46 85 -52 36 -4 63 -13 75 -25 23 -22 40 -87 32 -119 -8 -28 -70 -66
-96 -57 -11 3 -27 0 -36 -9 -9 -8 -39 -17 -65 -20 -28 -3 -57 -13 -70 -25 -22
-20 -66 -23 -113 -7 -25 8 -47 50 -39 75 5 17 47 35 70 32 6 -1 16 12 24 29
10 24 11 36 2 55 -6 14 -11 34 -11 45 0 28 -35 101 -65 137 -13 16 -30 54 -36
83 -6 30 -17 61 -25 70 -8 8 -14 23 -14 31 0 9 -7 21 -15 28 -9 7 -15 29 -15
55 0 35 -9 54 -50 110 -27 37 -50 71 -50 74 0 4 -13 14 -29 24 -25 14 -30 15
-41 2 -6 -7 -18 -11 -26 -8 -26 10 -74 -18 -90 -53 -9 -18 -27 -40 -40 -49
-21 -14 -28 -14 -59 -1 -36 15 -52 8 -41 -20 3 -8 -1 -17 -10 -21 -13 -5 -13
-7 -2 -14 7 -5 23 -9 35 -9 22 0 23 -17 3 -65 -18 -42 -19 -93 -3 -107 9 -7
22 -27 29 -45 8 -18 33 -56 57 -85 46 -57 62 -101 46 -130 -7 -13 -6 -18 4
-18 22 0 58 -45 51 -64 -8 -22 23 -117 44 -132 9 -7 31 -10 49 -7 42 7 73 -1
101 -27 31 -29 28 -56 -10 -91 -25 -22 -41 -29 -67 -27 -19 1 -36 -2 -38 -7
-9 -27 -24 -37 -62 -46 -57 -13 -117 3 -125 34 -10 39 -7 60 14 83 19 19 20
25 9 69 -7 26 -28 68 -47 94 -24 31 -35 55 -34 74 1 16 -6 40 -16 55 -59 88
-100 243 -73 276 9 11 8 14 -6 12 -12 0 -19 7 -21 22 -3 17 2 22 17 22 14 0
21 6 21 19 0 27 -15 34 -39 19 -17 -10 -23 -9 -38 4 -44 41 -99 85 -112 89 -7
3 -33 -15 -58 -39 -38 -38 -46 -42 -56 -29 -7 8 -22 18 -34 21 -19 6 -26 -1
-54 -60 -25 -53 -29 -71 -20 -83 25 -35 29 -58 19 -103 -14 -60 -5 -94 27
-102 28 -7 58 -57 38 -63 -14 -5 -7 -34 23 -100 13 -28 24 -68 24 -88 0 -28 7
-42 31 -62 20 -17 29 -32 26 -45 -8 -30 13 -61 61 -91 36 -22 53 -27 78 -22
27 5 39 0 66 -24 29 -26 32 -32 23 -57 -8 -22 -21 -32 -51 -42 -31 -10 -45
-22 -57 -48 -10 -19 -23 -34 -30 -33 -34 4 -49 -4 -72 -41 -25 -39 -25 -40
-58 -26 -17 8 -53 22 -79 31 -47 16 -68 46 -68 96 0 20 45 59 69 59 9 0 22 4
30 9 11 7 11 13 -3 32 -9 13 -16 30 -16 39 0 8 -13 28 -30 43 -19 18 -30 39
-30 55 0 15 -14 47 -30 71 -17 24 -30 52 -30 62 0 10 -4 20 -9 23 -5 3 -12 23
-16 43 -4 21 -13 49 -21 63 -24 45 -44 102 -44 128 0 15 -10 35 -24 47 -13 11
-29 39 -35 62 -12 43 -23 52 -56 46 -82 -15 -111 -14 -127 4 -23 26 -33 88
-16 101 7 6 30 26 52 44 27 23 47 32 66 30 18 -2 30 2 34 13 5 13 16 15 53 11
66 -7 86 -33 78 -103 -4 -39 -2 -53 7 -53 16 0 68 54 68 70 0 9 34 64 50 80
11 11 30 50 30 61 0 7 12 27 26 46 22 30 29 33 59 27 19 -3 35 -1 39 5 4 6 30
11 57 11 39 0 55 -5 72 -22 61 -62 76 -71 92 -58 8 7 15 23 15 36 0 13 14 39
30 58 17 18 39 54 50 79 20 45 82 107 107 107 7 0 27 9 45 20 46 28 84 26 104
-5z m3793 -198 c-1 -49 -18 -85 -47 -96 -15 -6 -45 -21 -67 -34 -38 -21 -40
-25 -43 -77 -3 -42 0 -57 13 -66 11 -8 22 -41 30 -89 12 -69 19 -82 70 -145
31 -39 60 -70 65 -70 6 0 10 -15 10 -34 0 -19 14 -63 30 -98 21 -45 32 -87 36
-134 7 -95 23 -154 51 -187 13 -16 23 -32 23 -35 1 -4 2 -32 4 -62 2 -30 6
-77 9 -105 6 -49 -7 -117 -26 -142 -5 -7 -19 -13 -31 -13 -32 0 -60 -24 -61
-51 0 -17 -8 -25 -30 -31 -22 -5 -35 -19 -49 -48 -11 -22 -24 -40 -31 -40 -6
0 -30 -17 -53 -38 -22 -21 -46 -36 -52 -34 -10 4 -39 -5 -95 -28 -20 -9 -48
-14 -134 -27 -34 -5 -47 -12 -60 -35 -13 -24 -21 -28 -51 -26 -25 2 -38 9 -44
24 -10 21 -40 38 -118 65 -21 7 -38 19 -38 26 0 7 -30 44 -67 84 -38 39 -67
78 -65 86 2 9 0 19 -5 22 -14 10 -52 76 -56 97 -1 10 -15 37 -30 59 -15 22
-27 49 -27 61 0 12 -16 53 -34 92 -19 38 -38 81 -42 96 -3 15 -16 33 -27 41
-16 11 -18 18 -10 26 9 9 6 23 -13 58 -13 25 -24 59 -24 74 0 17 -11 42 -26
60 -17 20 -24 40 -23 61 2 17 -2 40 -8 51 -6 11 -14 37 -18 56 l-7 37 -36 -11
c-21 -6 -55 -25 -77 -42 -22 -17 -58 -36 -80 -42 -22 -6 -48 -14 -57 -18 -15
-6 -18 -1 -18 32 0 31 6 45 30 66 16 15 36 40 45 56 19 37 43 51 89 51 19 0
36 6 38 13 3 6 16 13 29 14 85 6 140 23 216 67 94 54 178 72 202 42 11 -13 11
-19 1 -31 -7 -9 -15 -13 -18 -10 -3 2 -10 -2 -16 -9 -6 -8 -31 -21 -56 -29
-25 -8 -63 -32 -84 -52 -35 -32 -38 -40 -33 -72 4 -25 16 -45 37 -61 27 -21
30 -29 30 -76 0 -59 50 -176 76 -176 8 0 14 -10 14 -22 0 -12 10 -42 22 -67
13 -27 23 -65 23 -92 0 -25 5 -52 11 -60 15 -20 51 -108 58 -145 4 -17 18 -42
32 -54 17 -17 24 -34 24 -61 0 -30 7 -43 37 -69 59 -52 151 -91 217 -91 32 -1
60 2 63 5 4 3 14 -1 23 -9 15 -13 24 -14 64 -3 28 7 53 21 61 35 11 16 25 23
46 23 65 0 116 46 166 150 7 14 18 33 25 42 10 14 10 27 0 63 -7 25 -12 57
-12 71 0 32 -17 64 -34 64 -16 0 -39 52 -62 138 -9 34 -21 65 -25 68 -5 3 -9
17 -9 32 0 16 -10 34 -26 47 -17 14 -23 26 -19 38 10 25 18 22 59 -23 22 -25
36 -50 36 -66 0 -17 12 -38 35 -60 19 -18 35 -37 35 -43 0 -6 4 -11 8 -11 5 0
14 -11 20 -25 6 -14 16 -25 22 -25 16 0 12 30 -5 36 -8 4 -15 13 -15 22 0 9
-11 39 -24 67 -42 89 -86 197 -86 213 0 30 -84 182 -100 179 -11 -1 -15 9 -16
41 -1 24 -7 49 -13 55 -6 6 -11 22 -11 36 0 15 -13 45 -29 69 -18 27 -26 51
-24 66 7 33 -7 38 -69 24 -57 -12 -81 -25 -72 -39 7 -12 -3 -11 -24 0 -12 6
-30 3 -56 -10 -57 -28 -86 -25 -86 7 0 14 4 23 8 20 5 -3 15 6 23 20 17 34 58
54 107 54 56 0 121 26 162 63 42 40 110 73 167 82 24 4 53 15 65 25 29 23 37
18 37 -23z m-3139 -397 c0 -5 -4 -10 -10 -10 -5 0 -10 5 -10 10 0 6 5 10 10
10 6 0 10 -4 10 -10z m1121 -363 c19 -12 35 -30 37 -39 6 -29 -117 -156 -125
-131 -5 13 -102 -13 -122 -33 -12 -11 -12 -22 4 -76 10 -35 27 -75 37 -90 10
-14 18 -30 18 -35 1 -26 70 -185 98 -222 17 -24 32 -54 32 -66 0 -37 27 -91
60 -118 32 -28 37 -45 18 -66 -10 -11 -10 -14 0 -18 8 -3 12 -26 12 -67 0 -73
16 -114 48 -122 13 -4 21 -11 19 -18 -3 -6 2 -19 10 -28 9 -9 17 -30 18 -45 2
-15 13 -52 26 -80 21 -48 27 -54 72 -69 62 -21 114 -12 129 22 8 16 19 24 37
24 15 0 43 14 63 30 25 21 58 35 101 44 79 17 105 30 117 62 10 25 24 31 35
14 10 -17 51 -11 70 10 23 26 13 65 -22 82 -34 17 -40 35 -14 43 16 5 21 15
21 38 0 37 -21 102 -38 119 -7 7 -12 20 -12 30 0 9 -5 29 -12 44 -11 24 -10
29 20 55 60 54 108 28 98 -51 -5 -36 -3 -50 9 -60 8 -7 15 -16 15 -20 0 -4 13
-22 30 -40 36 -38 68 -106 68 -145 0 -15 3 -30 8 -34 16 -11 35 -52 29 -61 -4
-6 -12 -10 -20 -10 -17 0 -24 -20 -18 -52 5 -24 1 -27 -29 -33 -19 -4 -50 -21
-70 -38 -19 -18 -48 -39 -64 -48 -21 -11 -29 -22 -29 -42 1 -34 -13 -34 -40
-2 -23 29 -65 25 -65 -5 0 -16 -9 -18 -64 -17 -58 2 -67 -1 -90 -26 -14 -15
-36 -27 -50 -27 -14 0 -53 -13 -88 -29 -35 -16 -82 -34 -105 -41 -24 -7 -43
-17 -43 -22 0 -4 -14 -8 -31 -8 -19 0 -45 -12 -69 -31 -22 -18 -61 -38 -87
-44 -47 -12 -48 -14 -45 -47 l2 -35 -77 1 c-89 1 -116 13 -132 57 -11 32 -9
39 18 71 9 10 18 28 21 41 4 14 14 22 27 22 12 0 25 4 29 8 4 4 15 7 25 7 9 0
19 7 22 15 5 11 12 12 36 4 55 -19 114 24 80 58 -5 5 -12 25 -14 44 -10 81
-18 115 -30 135 -11 17 -11 28 2 68 15 43 14 49 -1 64 -10 10 -16 12 -16 4 0
-17 -63 -9 -68 9 -2 8 -6 21 -9 29 -4 8 -5 18 -5 23 1 4 -18 26 -42 50 -40 39
-44 46 -44 92 0 66 -15 102 -51 123 -24 13 -30 25 -34 62 -11 94 -26 158 -42
183 -9 14 -15 37 -13 50 1 13 -4 32 -12 42 -8 10 -20 34 -25 54 -8 27 -16 36
-32 36 -12 0 -33 11 -47 24 -22 21 -26 22 -32 7 -3 -9 -12 -16 -20 -16 -23 0
-54 -38 -54 -65 0 -29 -6 -30 -60 -9 -33 14 -43 14 -56 3 -14 -11 -19 -9 -35
11 -11 14 -17 34 -14 45 2 10 -1 39 -7 63 -15 59 -4 67 80 65 59 -2 72 2 122
32 83 50 184 95 213 95 14 0 28 4 32 9 3 6 26 20 50 32 25 12 45 26 45 30 0 8
35 15 91 18 23 0 48 -7 70 -22z m-796 -448 c4 -10 4 -23 1 -27 -7 -12 28 -151
47 -188 9 -17 23 -37 32 -44 22 -18 46 -77 39 -95 -4 -8 1 -18 10 -21 15 -6
36 -61 36 -96 0 -14 -8 -18 -35 -18 -27 0 -44 9 -76 40 -22 21 -48 42 -57 45
-9 4 -39 33 -67 66 -27 33 -65 66 -82 74 -18 8 -33 18 -33 23 0 5 -11 7 -24 5
-13 -3 -34 1 -47 7 -13 7 -46 14 -73 14 -43 2 -54 -2 -73 -23 -18 -21 -25 -24
-40 -15 -14 9 -20 8 -29 -4 -6 -8 -21 -15 -34 -16 -18 -1 -27 -9 -34 -34 -6
-21 -29 -50 -58 -75 -33 -29 -48 -50 -48 -67 0 -26 -21 -95 -33 -106 -3 -4 -2
-15 3 -24 7 -13 5 -21 -5 -30 -12 -10 -14 -34 -10 -124 5 -121 19 -180 41
-172 11 4 14 -7 14 -48 0 -39 5 -57 19 -70 11 -10 21 -36 24 -63 4 -37 12 -52
36 -72 17 -14 31 -29 31 -34 0 -4 15 -24 33 -43 17 -20 34 -45 37 -57 8 -28
89 -77 129 -77 10 0 25 -9 32 -21 15 -21 43 -27 167 -32 40 -2 69 1 80 10 9 7
29 13 43 13 34 0 89 42 115 88 11 20 24 36 28 34 17 -7 66 31 72 56 4 15 15
45 24 67 13 30 15 46 7 63 -8 16 -7 37 2 72 10 37 10 52 0 67 -9 15 -8 26 5
52 12 23 14 36 7 45 -15 18 13 53 56 71 19 8 37 15 38 15 2 0 6 -17 10 -37 4
-21 15 -50 26 -64 16 -22 18 -38 14 -86 -3 -32 -7 -70 -8 -85 -1 -14 -5 -30
-9 -34 -5 -4 -8 -18 -8 -31 0 -19 -5 -23 -29 -23 -17 0 -33 -5 -37 -11 -4 -7
-1 -10 7 -7 23 9 49 -11 49 -37 0 -13 -13 -40 -30 -58 -16 -19 -30 -46 -30
-59 0 -16 -9 -29 -25 -38 -14 -7 -25 -17 -25 -21 0 -4 -13 -21 -29 -38 -16
-17 -33 -45 -36 -62 -6 -25 -9 -28 -22 -17 -13 10 -20 7 -44 -20 -21 -24 -37
-32 -61 -32 -18 0 -45 -7 -60 -14 -17 -9 -41 -13 -63 -9 -31 5 -35 3 -35 -16
0 -21 -24 -29 -34 -12 -3 5 -14 7 -24 4 -10 -2 -24 3 -32 12 -12 14 -14 14
-32 -1 -16 -16 -20 -16 -31 -2 -6 9 -28 19 -47 22 -52 9 -140 53 -140 70 0 14
-90 96 -107 96 -27 0 -173 185 -173 220 0 11 -9 38 -20 60 -11 22 -20 44 -20
49 0 6 -12 36 -27 68 -22 48 -27 74 -29 151 -1 52 -7 98 -13 106 -9 10 -9 30
-1 72 20 116 27 142 48 176 12 20 22 45 22 56 0 29 45 110 81 147 16 17 29 37
29 44 0 8 7 11 20 8 10 -3 24 1 30 8 12 14 131 74 158 80 10 2 30 10 46 19 23
12 33 13 44 4 8 -7 48 -15 91 -18 53 -3 75 -9 74 -17 -4 -16 2 -16 28 -3 10 6
19 19 19 29 0 10 11 44 25 75 18 40 30 56 44 56 11 0 22 4 26 10 8 14 33 1 40
-21z"/>
<path d="M7679 5799 c-9 -18 -8 -20 12 -17 27 4 36 23 15 31 -10 4 -20 -2 -27
-14z"/>
<path d="M6595 6110 c3 -5 15 -10 26 -10 11 0 17 5 14 10 -3 6 -15 10 -26 10
-11 0 -17 -4 -14 -10z"/>
<path d="M4547 4790 c-25 -20 -28 -20 -52 -4 -23 15 -28 15 -71 -2 -28 -12
-51 -29 -60 -46 -11 -21 -22 -28 -44 -28 -33 0 -47 -27 -31 -58 14 -26 5 -32
-31 -21 -30 8 -68 -3 -68 -19 0 -4 -18 -32 -41 -62 -35 -47 -40 -59 -34 -90 3
-19 6 -56 5 -82 0 -25 4 -49 10 -53 5 -3 10 -19 10 -35 0 -45 29 -122 58 -152
14 -15 26 -40 27 -55 0 -14 6 -28 13 -31 7 -2 25 -14 40 -27 15 -12 38 -26 52
-30 22 -6 65 -24 135 -56 24 -11 185 -7 185 4 0 5 8 6 19 2 12 -3 21 0 25 11
3 9 13 14 20 11 8 -3 32 8 53 25 21 17 53 37 70 44 25 11 41 30 67 82 19 37
43 76 55 86 26 24 30 96 5 96 -9 0 -14 3 -12 8 31 58 42 98 46 154 4 63 2 69
-33 123 -21 31 -54 68 -74 81 -20 13 -44 36 -53 51 -16 28 -28 33 -153 64 -27
6 -54 16 -59 20 -17 15 -52 10 -79 -11z"/>
<path d="M8265 4630 c-16 -10 -40 -19 -51 -19 -12 -1 -24 -8 -28 -16 -3 -8
-16 -15 -30 -15 -14 0 -28 -4 -31 -10 -3 -5 -20 -10 -37 -10 -19 0 -45 -12
-70 -32 -26 -20 -57 -34 -91 -39 -38 -6 -58 -16 -79 -39 -15 -17 -28 -34 -28
-37 0 -3 18 -25 40 -50 30 -34 40 -54 40 -79 0 -24 8 -41 25 -56 18 -16 25
-32 25 -59 0 -63 39 -135 53 -96 3 9 10 7 25 -6 15 -14 25 -16 39 -9 10 6 30
8 45 5 16 -3 36 1 50 11 12 9 32 16 45 16 12 0 24 4 27 9 7 11 67 21 119 21
27 -1 37 3 37 15 0 8 5 15 11 15 10 0 49 28 92 65 9 8 17 29 17 47 0 20 9 42
23 57 24 27 54 132 42 151 -3 5 -13 10 -21 10 -8 0 -19 11 -24 25 -5 14 -20
29 -33 34 -13 5 -38 26 -57 47 -33 38 -85 64 -125 63 -11 0 -33 -9 -50 -19z"/>
<path d="M8527 4061 c-61 -5 -82 -10 -92 -25 -11 -15 -22 -18 -55 -13 -37 5
-46 1 -78 -27 -21 -17 -49 -37 -64 -44 -17 -7 -28 -19 -28 -31 0 -14 -5 -18
-20 -14 -11 3 -20 12 -20 19 0 17 -16 18 -27 2 -4 -7 -17 -18 -28 -24 -11 -6
-22 -22 -23 -35 -2 -13 -10 -28 -18 -32 -23 -13 -17 -46 11 -53 19 -5 25 -13
25 -35 0 -15 8 -36 19 -46 12 -12 19 -32 18 -59 0 -30 8 -52 26 -76 15 -19 31
-59 38 -89 7 -33 20 -63 35 -77 13 -13 24 -29 24 -37 0 -26 114 -11 150 20 8
7 34 15 57 18 23 3 55 14 72 26 16 12 45 21 64 21 20 0 39 5 42 10 4 6 11 8
17 4 12 -7 68 44 68 63 0 7 14 16 31 20 20 4 34 14 40 29 4 13 17 24 27 24 25
0 68 58 53 73 -8 8 -4 20 14 43 37 48 30 119 -16 165 -9 9 -18 22 -20 28 -2 6
-17 12 -34 13 -40 3 -65 33 -65 78 0 48 -19 64 -64 56 -20 -4 -37 -2 -41 4 -6
10 -10 10 -138 1z"/>
<path d="M3230 4045 c0 -8 2 -15 4 -15 2 0 6 7 10 15 3 8 1 15 -4 15 -6 0 -10
-7 -10 -15z"/>
<path d="M3415 8267 c-267 -187 -530 -370 -551 -382 -13 -9 25 -27 192 -94
385 -154 949 -374 959 -374 9 0 201 130 520 354 66 46 146 102 178 124 32 22
60 42 62 46 3 3 -235 99 -528 213 -293 115 -553 216 -579 227 -26 10 -50 19
-55 19 -4 0 -93 -60 -198 -133z"/>
<path d="M1890 7204 c-124 -86 -430 -299 -544 -379 -64 -43 -112 -82 -108 -86
7 -7 469 -190 1031 -410 68 -26 129 -45 135 -42 12 8 304 211 413 287 39 28
127 89 194 135 98 68 118 86 103 92 -11 4 -228 89 -484 189 -388 152 -668 260
-674 260 -1 0 -30 -20 -66 -46z"/>
</g>
</svg>
